<svg width="22" height="22" viewBox="0 0 22 22" fill="none" xmlns="http://www.w3.org/2000/svg">
<rect width="22" height="22" fill="#E2E2E2"/>
<g clip-path="url(#clip0_0_1)">
<rect width="375" height="1307" transform="translate(-20 -25)" fill="#0A0A11"/>
<g filter="url(#filter0_f_0_1)">
<ellipse cx="-159" cy="270" rx="260" ry="275" fill="#4070CD" fill-opacity="0.5"/>
</g>
<g filter="url(#filter1_f_0_1)">
<ellipse cx="150.5" cy="182.5" rx="128.5" ry="123.5" fill="#BCE6D2" fill-opacity="0.4"/>
</g>
<path d="M15.2145 0H6.78555L0 6.78554V15.2144L6.78555 22H15.2145L22 15.2144V6.78554L15.2145 0ZM7.95181 15.3205L3.60483 10.9735L7.95181 6.62651C9.59518 4.98313 12.2988 4.98313 13.9422 6.62651L18.2892 10.9735L13.9422 15.3205C12.2988 16.9639 9.64819 16.9639 7.95181 15.3205Z" fill="#F3F3F3"/>
</g>
<defs>
<filter id="filter0_f_0_1" x="-628.709" y="-214.709" width="939.417" height="969.417" filterUnits="userSpaceOnUse" color-interpolation-filters="sRGB">
<feFlood flood-opacity="0" result="BackgroundImageFix"/>
<feBlend mode="normal" in="SourceGraphic" in2="BackgroundImageFix" result="shape"/>
<feGaussianBlur stdDeviation="104.854" result="effect1_foregroundBlur_0_1"/>
</filter>
<filter id="filter1_f_0_1" x="-187.709" y="-150.709" width="676.417" height="666.417" filterUnits="userSpaceOnUse" color-interpolation-filters="sRGB">
<feFlood flood-opacity="0" result="BackgroundImageFix"/>
<feBlend mode="normal" in="SourceGraphic" in2="BackgroundImageFix" result="shape"/>
<feGaussianBlur stdDeviation="104.854" result="effect1_foregroundBlur_0_1"/>
</filter>
<clipPath id="clip0_0_1">
<rect width="375" height="1307" fill="white" transform="translate(-20 -25)"/>
</clipPath>
</defs>
</svg>
