<svg xmlns="http://www.w3.org/2000/svg" width="268" height="242" viewBox="0 0 268 242" fill="none">
<g filter="url(#filter0_b_139_1151)">
<path d="M0.100829 47.0671C0.100887 36.2375 0.415993 16.7442 3.74393 10.4131C9.41112 -0.368316 24.4852 0.289637 36.652 0.859711L238.71 10.3271C239.93 10.3843 241.143 10.5515 242.334 10.8266C254.38 13.61 263.631 23.317 265.868 35.4765C267.284 43.1735 268 50.9894 268 58.8156V171.171C268 180.059 264.933 188.698 259.316 195.587C254.282 201.763 246.743 205.346 238.776 205.346H192.705C191.583 205.346 190.261 205.539 188.853 205.856C180.406 207.756 173.788 213.98 168.633 220.936C167.489 222.481 166.227 223.932 164.936 225.357C158.976 231.938 151.013 242 133.634 242C127.855 242 122.519 240.359 118.186 238.299C111.305 235.027 106.409 228.914 101.903 222.771C94.0396 212.049 80.8993 206.67 67.6262 207.456C53.5009 208.291 36.7947 208.233 24.6443 205.346C5.00947 200.681 -0.869851 175.217 0.100829 163.694V47.0671Z" fill="#D9D9D9" fill-opacity="0.5"/>
</g>
<defs>
<filter id="filter0_b_139_1151" x="-55.9527" y="-55.3601" width="379.905" height="353.313" filterUnits="userSpaceOnUse" color-interpolation-filters="sRGB">
<feFlood flood-opacity="0" result="BackgroundImageFix"/>
<feGaussianBlur in="BackgroundImageFix" stdDeviation="27.9764"/>
<feComposite in2="SourceAlpha" operator="in" result="effect1_backgroundBlur_139_1151"/>
<feBlend mode="normal" in="SourceGraphic" in2="effect1_backgroundBlur_139_1151" result="shape"/>
</filter>
</defs>
</svg>