<svg xmlns="http://www.w3.org/2000/svg" width="299" height="269" viewBox="0 0 299 269" fill="none">
  <g filter="url(#filter0_b_144_4059)">
    <path d="M0.112493 52.3184C0.112557 40.2806 0.464111 18.6124 4.177 11.5749C10.51 -0.428903 27.3081 0.321514 40.8653 0.9544L266.329 11.4796C267.686 11.543 269.035 11.7282 270.359 12.033C283.802 15.1278 294.124 25.9105 296.629 39.4761L296.879 40.831C298.29 48.4733 299 56.2026 299 63.9741V190.208C299 200.126 295.569 209.763 289.288 217.438C283.685 224.286 275.311 228.256 266.464 228.256H214.996C213.736 228.256 212.25 228.474 210.667 228.831C201.267 230.946 193.891 237.852 188.141 245.583C186.863 247.302 185.455 248.917 184.013 250.502C177.363 257.816 168.479 269 149.092 269C142.647 269 136.698 267.178 131.865 264.89C124.186 261.253 118.713 254.448 113.675 247.605C104.908 235.695 90.2931 229.723 75.5303 230.597C59.7539 231.53 41.0742 231.471 27.495 228.256C5.58893 223.071 -0.970468 194.766 0.112493 181.957V52.3184Z" fill="#D9D9D9" fill-opacity="0.5"/>
  </g>
  <defs>
    <filter id="filter0_b_144_4059" x="-55.9527" y="-55.2971" width="410.905" height="380.25" filterUnits="userSpaceOnUse" color-interpolation-filters="sRGB">
      <feFlood flood-opacity="0" result="BackgroundImageFix"/>
      <feGaussianBlur in="BackgroundImageFix" stdDeviation="27.9764"/>
      <feComposite in2="SourceAlpha" operator="in" result="effect1_backgroundBlur_144_4059"/>
      <feBlend mode="normal" in="SourceGraphic" in2="effect1_backgroundBlur_144_4059" result="shape"/>
    </filter>
  </defs>
</svg>